<?xml version="1.0" encoding="UTF-8"?>
<svg id="Layer_1" data-name="Layer 1" xmlns="http://www.w3.org/2000/svg" viewBox="0 0 256 256">
  <defs>
    <style>
      .cls-1 {
        fill: #000;
        stroke-width: 0px;
      }
    </style>
  </defs>
  <g>
    <path class="cls-1" d="M126.33,179.62c.2.76.89,1.28,1.67,1.28s1.47-.52,1.67-1.28c3.66-13.67,12.56-26.15,21.16-38.22,9.35-13.12,18.19-25.52,18.19-37.39h0c0-14.65-7.82-28.19-20.51-35.52-12.69-7.33-28.33-7.33-41.02,0-12.69,7.33-20.51,20.87-20.51,35.53,0,11.87,8.83,24.27,18.19,37.39,8.6,12.06,17.49,24.54,21.15,38.21h0ZM128,82.69c5.66,0,11.08,2.24,15.08,6.24,4,4,6.25,9.43,6.25,15.08s-2.24,11.09-6.24,15.09c-4,4-9.43,6.24-15.09,6.24s-11.08-2.24-15.08-6.24c-4-4-6.25-9.43-6.25-15.09.01-5.65,2.26-11.08,6.26-15.07,4-4,9.42-6.25,15.08-6.26h0Z"/>
    <path class="cls-1" d="M171.58,179.9c0,3.19-2.13,5.44-5.05,7.07-2.93,1.63-6.65,2.64-9.85,3.35l-.11-.43.05.45c-8.86,1.76-17.95,2.66-27,2.66h-1.66c-9.53.11-19.17-.79-28.58-2.66-6.46-1.43-14.96-4.06-14.96-10.44,0-6.82,10.29-11.07,30.58-12.62,1.08-.12,2.26.25,3.17.99.92.79,1.47,1.89,1.55,3.05.09,1.14-.3,2.31-1.08,3.19-.75.87-1.87,1.41-3.04,1.47-6.11.35-12.21,1.35-18.14,2.97-1.08.33-1.93.66-2.59.93,1.28.55,3.27,1.24,6.35,1.92,8.76,1.74,17.77,2.56,26.74,2.46,9.05.11,18.05-.72,26.87-2.47,3.05-.67,5.02-1.35,6.3-1.89-.67-.29-1.55-.62-2.68-.97-5.84-1.59-11.95-2.59-18.06-2.94-1.16-.07-2.27-.6-3.04-1.49-.76-.85-1.17-2.02-1.08-3.21.09-1.17.64-2.25,1.55-3.01.92-.76,2.06-1.12,3.23-1,20.23,1.54,30.51,5.78,30.51,12.62Z"/>
  </g>
  <path class="cls-1" d="M182.9,240.5h-109.8c-31.76,0-57.6-25.84-57.6-57.6v-109.8c0-31.76,25.84-57.6,57.6-57.6h109.8c31.76,0,57.6,25.84,57.6,57.6v109.8c0,31.76-25.84,57.6-57.6,57.6ZM73.1,25.97c-25.99,0-47.13,21.14-47.13,47.13v109.8c0,25.99,21.14,47.13,47.13,47.13h109.8c25.99,0,47.13-21.14,47.13-47.13v-109.8c0-25.99-21.14-47.13-47.13-47.13h-109.8Z"/>
</svg>