<?xml version="1.0" encoding="UTF-8"?>
<svg id="Layer_1" data-name="Layer 1" xmlns="http://www.w3.org/2000/svg" viewBox="0 0 256 256">
  <defs>
    <style>
      .cls-1 {
        fill: #000;
        stroke-width: 0px;
      }
    </style>
  </defs>
  <g>
    <path class="cls-1" d="M183.71,72.29h-9.29v-4.64c0-2.56-2.08-4.64-4.64-4.64s-4.64,2.08-4.64,4.64v4.64h-18.57v-4.64c0-2.56-2.08-4.64-4.64-4.64s-4.64,2.08-4.64,4.64v4.64h-18.57v-4.64c0-2.56-2.08-4.64-4.64-4.64s-4.64,2.08-4.64,4.64v4.64h-18.57v-4.64c0-2.56-2.08-4.64-4.64-4.64s-4.64,2.08-4.64,4.64v4.64h-9.29c-5.13,0-9.29,4.16-9.29,9.29v102.14c0,5.13,4.16,9.29,9.29,9.29h111.43c5.13,0,9.29-4.16,9.29-9.29v-102.14c0-5.13-4.16-9.29-9.29-9.29ZM81.57,81.57c0,2.56,2.08,4.64,4.64,4.64s4.64-2.08,4.64-4.64h18.57c0,2.56,2.08,4.64,4.64,4.64s4.64-2.08,4.64-4.64h18.57c0,2.56,2.08,4.64,4.64,4.64s4.64-2.08,4.64-4.64h18.57c0,2.56,2.08,4.64,4.64,4.64s4.64-2.08,4.64-4.64h9.29v18.57h-111.43v-18.57h9.29ZM72.29,183.71v-74.29h111.43v74.29h-111.43Z"/>
    <path class="cls-1" d="M152.47,133.25c-7.3-13.54-24.2-18.6-37.74-11.3-8.48,4.57-13.99,13.2-14.58,22.81l-1.44-1.49c-1.82-1.82-4.77-1.82-6.59,0-1.82,1.82-1.82,4.77,0,6.59l9.29,9.29c1.81,1.82,4.75,1.83,6.57.03,0,0,.02-.02.03-.03l9.29-9.29c1.82-1.82,1.82-4.77,0-6.59-1.82-1.82-4.77-1.82-6.59,0l-1.11,1.16c1.29-10.18,10.58-17.38,20.75-16.1,5.85.74,11,4.22,13.88,9.36,1.55,2.7,2.36,5.76,2.37,8.87,0,10.26-8.31,18.57-18.57,18.57-3.1.02-6.16-.76-8.87-2.27-2.26-1.28-5.13-.49-6.41,1.76-1.28,2.26-.49,5.13,1.76,6.41,13.51,7.36,30.43,2.38,37.79-11.12,4.53-8.31,4.53-18.36,0-26.67h.19Z"/>
  </g>
  <path class="cls-1" d="M182.9,240.5h-109.8c-31.76,0-57.6-25.84-57.6-57.6v-109.8c0-31.76,25.84-57.6,57.6-57.6h109.8c31.76,0,57.6,25.84,57.6,57.6v109.8c0,31.76-25.84,57.6-57.6,57.6ZM73.1,25.97c-25.99,0-47.13,21.14-47.13,47.13v109.8c0,25.99,21.14,47.13,47.13,47.13h109.8c25.99,0,47.13-21.14,47.13-47.13v-109.8c0-25.99-21.14-47.13-47.13-47.13h-109.8Z"/>
</svg>