<?xml version="1.0" encoding="UTF-8"?>
<svg id="Layer_1" data-name="Layer 1" xmlns="http://www.w3.org/2000/svg" viewBox="0 0 256 256">
  <defs>
    <style>
      .cls-1 {
        fill: #000;
        stroke-width: 0px;
      }
    </style>
  </defs>
  <path class="cls-1" d="M128,63c-35.92,0-65,29.08-65,65s29.08,65,65,65,65-29.08,65-65-29.08-65-65-65ZM161.64,150.75c3.08,3.08,3.08,7.96,0,11.05-3.08,3.08-7.96,3.08-11.05,0l-22.75-22.75-22.75,22.75c-3.08,3.08-7.96,3.08-11.05,0-3.08-3.08-3.08-7.96,0-11.05l22.75-22.75-22.75-22.75c-3.08-3.08-3.08-7.96,0-11.05,3.08-3.08,7.96-3.08,11.05,0l22.75,22.75,22.75-22.75c3.08-3.08,7.96-3.08,11.05,0,3.08,3.08,3.08,7.96,0,11.05l-22.75,22.75,22.75,22.75Z"/>
  <path class="cls-1" d="M182.9,240.5h-109.8c-31.76,0-57.6-25.84-57.6-57.6v-109.8c0-31.76,25.84-57.6,57.6-57.6h109.8c31.76,0,57.6,25.84,57.6,57.6v109.8c0,31.76-25.84,57.6-57.6,57.6ZM73.1,25.97c-25.99,0-47.13,21.14-47.13,47.13v109.8c0,25.99,21.14,47.13,47.13,47.13h109.8c25.99,0,47.13-21.14,47.13-47.13v-109.8c0-25.99-21.14-47.13-47.13-47.13h-109.8Z"/>
</svg>