<?xml version="1.0" encoding="UTF-8"?>
<svg id="Layer_1" data-name="Layer 1" xmlns="http://www.w3.org/2000/svg" viewBox="0 0 256 256">
  <defs>
    <style>
      .cls-1 {
        fill: #000;
        stroke-width: 0px;
      }
    </style>
  </defs>
  <g>
    <path class="cls-1" d="M177.18,177.58v-99.16c2.13-1.59,3.59-4.12,3.59-6.91,0-4.65-3.85-8.51-8.51-8.51h-88.53c-4.65,0-8.51,3.85-8.51,8.51,0,2.92,1.46,5.45,3.59,6.91v99.16c-2.13,1.59-3.59,4.12-3.59,6.91,0,4.65,3.85,8.51,8.51,8.51h88.39c4.65,0,8.51-3.85,8.51-8.51.13-2.79-1.33-5.32-3.46-6.91h0ZM141.82,128.13c10.63-6.51,24.72-17.95,24.72-32.83,0-5.98-.93-11.03-2.79-15.15h8.11v95.84s-7.97,0-7.97,0c1.73-4.12,2.66-9.04,2.66-14.89,0-15.02-13.96-26.45-24.72-32.96h0ZM92.11,175.99h-7.98v-95.84h7.98c-1.73,4.12-2.66,9.17-2.66,15.15,0,15.02,13.96,26.45,24.72,32.83-10.77,6.51-24.72,17.95-24.72,32.96,0,5.85.93,10.77,2.66,14.89h0ZM120.69,130.53l4.25-2.39-4.25-2.39c-9.7-5.18-25.92-16.22-25.92-30.44,0-6.38,1.06-11.3,3.46-15.15h59.68c2.26,3.85,3.46,8.77,3.46,15.15,0,14.22-16.22,25.26-25.92,30.57l-4.39,2.26,4.25,2.39c9.7,5.32,25.92,16.35,25.92,30.57,0,6.25-1.06,11.17-3.19,14.89h-59.95c-2.13-3.85-3.32-8.64-3.32-14.89,0-14.36,16.22-25.26,25.92-30.57h0Z"/>
    <path class="cls-1" d="M128,123.61l1.06-.53c.53-.27,12.89-5.72,20.34-15.29l3.32-4.25h-49.45l3.32,4.25c7.44,9.57,19.81,15.02,20.34,15.29l1.06.53Z"/>
    <path class="cls-1" d="M101.81,170.67h52.24l.4-2.26c.27-1.59.4-3.32.4-5.05,0-5.05-2.39-9.97-7.18-14.49l-.66-.8h-38.02l-.8.8c-4.79,4.65-7.18,9.57-7.18,14.49,0,1.73.13,3.46.4,5.05l.4,2.26Z"/>
    <rect class="cls-1" x="127.62" y="111.02" width=".63" height="44.28"/>
  </g>
  <path class="cls-1" d="M182.9,240.5h-109.8c-31.76,0-57.6-25.84-57.6-57.6v-109.8c0-31.76,25.84-57.6,57.6-57.6h109.8c31.76,0,57.6,25.84,57.6,57.6v109.8c0,31.76-25.84,57.6-57.6,57.6ZM73.1,25.97c-25.99,0-47.13,21.14-47.13,47.13v109.8c0,25.99,21.14,47.13,47.13,47.13h109.8c25.99,0,47.13-21.14,47.13-47.13v-109.8c0-25.99-21.14-47.13-47.13-47.13h-109.8Z"/>
</svg>